# xmcd CD database file
#
# Track frame offsets:
#	150
#	18986
#	40761
#	60885
#	84518
#	102980
#	128079
#	145411
#	170151
#	187499
#	210064
#
# Disc length: 3085 seconds
#
# Revision: 0
# Processed by: cddbd v1.5.2PL0 Copyright (c) Steve Scherf et al.
# Submitted via: CDex 1.51
#
DISCID=920c0b0b
DTITLE=CanUS Sextet - CanUS Volume II
DYEAR=2003
DGENRE=Jazz
TTITLE0=Double Check Stomp
TTITLE1=Marianne
TTITLE2=C-U-B-A
TTITLE3=Ol' Squareface
TTITLE4=In The Sweet By and By
TTITLE5=Cinderella Girl
TTITLE6=Darktown Strutters
TTITLE7=Lonely Lady
TTITLE8=Strut Miss Lizzie
TTITLE9=Little White Lies
TTITLE10=Drop Me Off In Harlem
EXTD=YEAR: 2003
EXTT0=
EXTT1=
EXTT2=
EXTT3=
EXTT4=
EXTT5=
EXTT6=
EXTT7=
EXTT8=
EXTT9=
EXTT10=
PLAYORDER=
